<svg xmlns="http://www.w3.org/2000/svg" viewBox="0 0 600 600" width="600" height="600"><defs></defs><ellipse cx="300" cy="520" rx="220" ry="22" fill="#000" opacity="0.08"/><g><path d="M150 170 L190 140 L390 140 L350 170 Z" fill="#C0D8E9"/><path d="M350 170 L390 140 L390 500 L350 520 Z" fill="#E4EBEE"/><rect x="150" y="170" width="200" height="350" fill="#fff" stroke="#D4DEE3" stroke-width="2"/><rect x="150" y="170" width="200" height="16" fill="#2F7FB8"/><text x="250" y="262" text-anchor="middle" font-family="Georgia, serif" font-size="34" font-weight="700" fill="#0E2A3B">Brevora</text><text x="250" y="292" text-anchor="middle" font-family="Arial, sans-serif" font-size="15" fill="#5B6B75">(fenacotide)</text><path d="M150 440 Q250 400 350 440 V520 H150 Z" fill="#2F7FB8" opacity="0.9"/><path d="M150 470 Q250 430 350 470" fill="none" stroke="#fff" stroke-width="3" opacity="0.6"/><text x="168" y="342" font-family="Arial, sans-serif" font-size="13" fill="#5B6B75">120 metered doses</text><text x="168" y="362" font-family="Arial, sans-serif" font-size="12" fill="#8A99A1">Rx only · demo pack</text><circle cx="320" cy="205" r="12" fill="none" stroke="#2F7FB8" stroke-width="3"/><circle cx="320" cy="205" r="4" fill="#2F7FB8"/></g><g transform="translate(380 250)"><path d="M20 0 H110 V200 Q110 230 80 230 H20 Z" fill="#2F7FB8"/><rect x="-30" y="180" width="80" height="60" rx="14" fill="#97BFDB"/><rect x="40" y="20" width="50" height="20" rx="6" fill="#fff" opacity="0.7"/></g></svg>
