<svg xmlns="http://www.w3.org/2000/svg" viewBox="0 0 1600 480" width="1600" height="480"><defs><linearGradient id="bg" x1="0" y1="0" x2="1" y2="0"><stop offset="0" stop-color="#EDF5F3"/><stop offset="1" stop-color="#F7FAFB"/></linearGradient></defs><rect width="1600" height="480" fill="url(#bg)"/><circle cx="1250" cy="240" r="250" fill="#7FD8CB" opacity="0.18"/><line x1="1335" y1="365" x2="1377" y2="373" stroke="#12707A" stroke-width="1.6" opacity="0.16"/><line x1="1335" y1="365" x2="1376" y2="373" stroke="#12707A" stroke-width="1.6" opacity="0.16"/><line x1="1335" y1="365" x2="1204" y2="309" stroke="#12707A" stroke-width="1.6" opacity="0.01"/><line x1="1209" y1="193" x2="1253" y2="109" stroke="#12707A" stroke-width="1.6" opacity="0.08"/><line x1="1209" y1="193" x2="1121" y2="310" stroke="#12707A" stroke-width="1.6" opacity="0.01"/><line x1="1209" y1="193" x2="1185" y2="73" stroke="#12707A" stroke-width="1.6" opacity="0.04"/><line x1="1209" y1="193" x2="1200" y2="182" stroke="#12707A" stroke-width="1.6" opacity="0.20"/><line x1="1209" y1="193" x2="1170" y2="153" stroke="#12707A" stroke-width="1.6" opacity="0.14"/><line x1="1209" y1="193" x2="1204" y2="309" stroke="#12707A" stroke-width="1.6" opacity="0.05"/><line x1="1209" y1="193" x2="1152" y2="141" stroke="#12707A" stroke-width="1.6" opacity="0.11"/><line x1="1040" y1="85" x2="1018" y2="164" stroke="#12707A" stroke-width="1.6" opacity="0.10"/><line x1="1040" y1="85" x2="1185" y2="73" stroke="#12707A" stroke-width="1.6" opacity="0.01"/><line x1="1040" y1="85" x2="1036" y2="198" stroke="#12707A" stroke-width="1.6" opacity="0.06"/><line x1="1040" y1="85" x2="1170" y2="153" stroke="#12707A" stroke-width="1.6" opacity="0.00"/><line x1="1040" y1="85" x2="1152" y2="141" stroke="#12707A" stroke-width="1.6" opacity="0.04"/><line x1="1018" y1="164" x2="902" y2="163" stroke="#12707A" stroke-width="1.6" opacity="0.05"/><line x1="1018" y1="164" x2="974" y2="259" stroke="#12707A" stroke-width="1.6" opacity="0.07"/><line x1="1018" y1="164" x2="1036" y2="198" stroke="#12707A" stroke-width="1.6" opacity="0.16"/><line x1="1018" y1="164" x2="1152" y2="141" stroke="#12707A" stroke-width="1.6" opacity="0.02"/><line x1="902" y1="163" x2="974" y2="259" stroke="#12707A" stroke-width="1.6" opacity="0.04"/><line x1="902" y1="163" x2="925" y2="296" stroke="#12707A" stroke-width="1.6" opacity="0.02"/><line x1="902" y1="163" x2="840" y2="186" stroke="#12707A" stroke-width="1.6" opacity="0.12"/><line x1="902" y1="163" x2="1036" y2="198" stroke="#12707A" stroke-width="1.6" opacity="0.02"/><line x1="902" y1="163" x2="854" y2="112" stroke="#12707A" stroke-width="1.6" opacity="0.12"/><line x1="1253" y1="109" x2="1356" y2="23" stroke="#12707A" stroke-width="1.6" opacity="0.02"/><line x1="1253" y1="109" x2="1185" y2="73" stroke="#12707A" stroke-width="1.6" opacity="0.11"/><line x1="1253" y1="109" x2="1200" y2="182" stroke="#12707A" stroke-width="1.6" opacity="0.09"/><line x1="1253" y1="109" x2="1356" y2="136" stroke="#12707A" stroke-width="1.6" opacity="0.06"/><line x1="1253" y1="109" x2="1170" y2="153" stroke="#12707A" stroke-width="1.6" opacity="0.08"/><line x1="1253" y1="109" x2="1392" y2="65" stroke="#12707A" stroke-width="1.6" opacity="0.01"/><line x1="1253" y1="109" x2="1152" y2="141" stroke="#12707A" stroke-width="1.6" opacity="0.06"/><line x1="974" y1="259" x2="896" y2="340" stroke="#12707A" stroke-width="1.6" opacity="0.05"/><line x1="974" y1="259" x2="925" y2="296" stroke="#12707A" stroke-width="1.6" opacity="0.13"/><line x1="974" y1="259" x2="1036" y2="198" stroke="#12707A" stroke-width="1.6" opacity="0.09"/><line x1="1377" y1="373" x2="1515" y2="387" stroke="#12707A" stroke-width="1.6" opacity="0.02"/><line x1="1377" y1="373" x2="1376" y2="373" stroke="#12707A" stroke-width="1.6" opacity="0.22"/><line x1="1377" y1="373" x2="1478" y2="412" stroke="#12707A" stroke-width="1.6" opacity="0.06"/><line x1="896" y1="340" x2="925" y2="296" stroke="#12707A" stroke-width="1.6" opacity="0.14"/><line x1="1121" y1="310" x2="1200" y2="182" stroke="#12707A" stroke-width="1.6" opacity="0.00"/><line x1="1121" y1="310" x2="1036" y2="198" stroke="#12707A" stroke-width="1.6" opacity="0.01"/><line x1="1121" y1="310" x2="1204" y2="309" stroke="#12707A" stroke-width="1.6" opacity="0.10"/><line x1="1515" y1="387" x2="1376" y2="373" stroke="#12707A" stroke-width="1.6" opacity="0.01"/><line x1="1515" y1="387" x2="1478" y2="412" stroke="#12707A" stroke-width="1.6" opacity="0.15"/><line x1="1376" y1="373" x2="1478" y2="412" stroke="#12707A" stroke-width="1.6" opacity="0.06"/><line x1="925" y1="296" x2="840" y2="186" stroke="#12707A" stroke-width="1.6" opacity="0.02"/><line x1="925" y1="296" x2="1036" y2="198" stroke="#12707A" stroke-width="1.6" opacity="0.00"/><line x1="1356" y1="23" x2="1356" y2="136" stroke="#12707A" stroke-width="1.6" opacity="0.05"/><line x1="1356" y1="23" x2="1392" y2="65" stroke="#12707A" stroke-width="1.6" opacity="0.14"/><line x1="1185" y1="73" x2="1200" y2="182" stroke="#12707A" stroke-width="1.6" opacity="0.06"/><line x1="1185" y1="73" x2="1170" y2="153" stroke="#12707A" stroke-width="1.6" opacity="0.10"/><line x1="1185" y1="73" x2="1152" y2="141" stroke="#12707A" stroke-width="1.6" opacity="0.11"/><line x1="1200" y1="182" x2="1170" y2="153" stroke="#12707A" stroke-width="1.6" opacity="0.16"/><line x1="1200" y1="182" x2="1204" y2="309" stroke="#12707A" stroke-width="1.6" opacity="0.03"/><line x1="1200" y1="182" x2="1152" y2="141" stroke="#12707A" stroke-width="1.6" opacity="0.13"/><line x1="840" y1="186" x2="854" y2="112" stroke="#12707A" stroke-width="1.6" opacity="0.11"/><line x1="1356" y1="136" x2="1392" y2="65" stroke="#12707A" stroke-width="1.6" opacity="0.10"/><line x1="1036" y1="198" x2="1170" y2="153" stroke="#12707A" stroke-width="1.6" opacity="0.01"/><line x1="1036" y1="198" x2="1152" y2="141" stroke="#12707A" stroke-width="1.6" opacity="0.03"/><line x1="1170" y1="153" x2="1152" y2="141" stroke="#12707A" stroke-width="1.6" opacity="0.19"/><circle cx="1335" cy="365" r="5.1" fill="#12707A"/><circle cx="1209" cy="193" r="7.0" fill="#12707A"/><circle cx="1040" cy="85" r="4.0" fill="#12707A"/><circle cx="1018" cy="164" r="4.1" fill="#12707A"/><circle cx="902" cy="163" r="4.2" fill="#12707A"/><circle cx="1253" cy="109" r="3.3" fill="#12707A"/><circle cx="974" cy="259" r="4.6" fill="#12707A"/><circle cx="1377" cy="373" r="4.7" fill="#12707A"/><circle cx="896" cy="340" r="6.0" fill="#12707A"/><circle cx="1121" cy="310" r="4.2" fill="#12707A"/><circle cx="1515" cy="387" r="6.2" fill="#12707A"/><circle cx="1545" cy="122" r="5.2" fill="#12707A"/><circle cx="1376" cy="373" r="4.6" fill="#12707A"/><circle cx="925" cy="296" r="3.4" fill="#12707A"/><circle cx="1356" cy="23" r="4.8" fill="#12707A"/><circle cx="1185" cy="73" r="4.9" fill="#12707A"/><circle cx="1200" cy="182" r="6.6" fill="#12707A"/><circle cx="1478" cy="412" r="4.0" fill="#12707A"/><circle cx="840" cy="186" r="3.5" fill="#12707A"/><circle cx="1356" cy="136" r="3.5" fill="#12707A"/><circle cx="1036" cy="198" r="5.9" fill="#12707A"/><circle cx="1170" cy="153" r="5.7" fill="#12707A"/><circle cx="854" cy="112" r="5.7" fill="#12707A"/><circle cx="1392" cy="65" r="3.3" fill="#12707A"/><circle cx="1204" cy="309" r="3.1" fill="#12707A"/><circle cx="1152" cy="141" r="3.3" fill="#12707A"/><circle cx="1060" cy="222" r="29" fill="#12707A"/><path d="M1008 302 Q1060 242 1112 302 Z" fill="#12707A" opacity="0.85"/><circle cx="1220" cy="173" r="36" fill="#7FD8CB"/><path d="M1156 272 Q1220 198 1284 272 Z" fill="#7FD8CB" opacity="0.85"/><circle cx="1380" cy="234" r="28" fill="#F2C46D"/><path d="M1330 310 Q1380 254 1430 310 Z" fill="#F2C46D" opacity="0.85"/><circle cx="1300" cy="332" r="21" fill="#12707A"/><path d="M1262 390 Q1300 348 1338 390 Z" fill="#12707A" opacity="0.85"/><circle cx="1140" cy="345" r="19" fill="#7FD8CB"/><path d="M1106 398 Q1140 358 1174 398 Z" fill="#7FD8CB" opacity="0.85"/></svg>
