<svg xmlns="http://www.w3.org/2000/svg" viewBox="0 0 1600 480" width="1600" height="480"><defs><linearGradient id="bg" x1="0" y1="0" x2="1" y2="0"><stop offset="0" stop-color="#ECF3F5"/><stop offset="1" stop-color="#F7FAFB"/></linearGradient></defs><rect width="1600" height="480" fill="url(#bg)"/><circle cx="1250" cy="240" r="250" fill="#7FD8CB" opacity="0.18"/><line x1="958" y1="311" x2="970" y2="235" stroke="#12707A" stroke-width="1.6" opacity="0.11"/><line x1="958" y1="311" x2="1013" y2="324" stroke="#12707A" stroke-width="1.6" opacity="0.14"/><line x1="958" y1="311" x2="907" y2="230" stroke="#12707A" stroke-width="1.6" opacity="0.08"/><line x1="958" y1="311" x2="930" y2="321" stroke="#12707A" stroke-width="1.6" opacity="0.18"/><line x1="958" y1="311" x2="897" y2="330" stroke="#12707A" stroke-width="1.6" opacity="0.13"/><line x1="958" y1="311" x2="958" y2="203" stroke="#12707A" stroke-width="1.6" opacity="0.06"/><line x1="970" y1="235" x2="1013" y2="324" stroke="#12707A" stroke-width="1.6" opacity="0.08"/><line x1="970" y1="235" x2="984" y2="152" stroke="#12707A" stroke-width="1.6" opacity="0.10"/><line x1="970" y1="235" x2="907" y2="230" stroke="#12707A" stroke-width="1.6" opacity="0.13"/><line x1="970" y1="235" x2="930" y2="321" stroke="#12707A" stroke-width="1.6" opacity="0.08"/><line x1="970" y1="235" x2="942" y2="111" stroke="#12707A" stroke-width="1.6" opacity="0.03"/><line x1="970" y1="235" x2="897" y2="330" stroke="#12707A" stroke-width="1.6" opacity="0.04"/><line x1="970" y1="235" x2="958" y2="203" stroke="#12707A" stroke-width="1.6" opacity="0.17"/><line x1="1185" y1="222" x2="1229" y2="281" stroke="#12707A" stroke-width="1.6" opacity="0.11"/><line x1="1185" y1="222" x2="1152" y2="199" stroke="#12707A" stroke-width="1.6" opacity="0.16"/><line x1="1185" y1="222" x2="1226" y2="169" stroke="#12707A" stroke-width="1.6" opacity="0.12"/><line x1="1185" y1="222" x2="1313" y2="259" stroke="#12707A" stroke-width="1.6" opacity="0.02"/><line x1="1013" y1="324" x2="907" y2="230" stroke="#12707A" stroke-width="1.6" opacity="0.01"/><line x1="1013" y1="324" x2="930" y2="321" stroke="#12707A" stroke-width="1.6" opacity="0.10"/><line x1="1013" y1="324" x2="897" y2="330" stroke="#12707A" stroke-width="1.6" opacity="0.05"/><line x1="1013" y1="324" x2="958" y2="203" stroke="#12707A" stroke-width="1.6" opacity="0.02"/><line x1="1333" y1="366" x2="1378" y2="273" stroke="#12707A" stroke-width="1.6" opacity="0.07"/><line x1="1333" y1="366" x2="1335" y2="404" stroke="#12707A" stroke-width="1.6" opacity="0.16"/><line x1="1333" y1="366" x2="1229" y2="281" stroke="#12707A" stroke-width="1.6" opacity="0.02"/><line x1="1333" y1="366" x2="1447" y2="284" stroke="#12707A" stroke-width="1.6" opacity="0.01"/><line x1="1333" y1="366" x2="1313" y2="259" stroke="#12707A" stroke-width="1.6" opacity="0.06"/><line x1="1333" y1="366" x2="1442" y2="320" stroke="#12707A" stroke-width="1.6" opacity="0.05"/><line x1="1537" y1="123" x2="1562" y2="117" stroke="#12707A" stroke-width="1.6" opacity="0.18"/><line x1="1537" y1="123" x2="1568" y2="78" stroke="#12707A" stroke-width="1.6" opacity="0.14"/><line x1="1537" y1="123" x2="1492" y2="230" stroke="#12707A" stroke-width="1.6" opacity="0.05"/><line x1="1378" y1="273" x2="1335" y2="404" stroke="#12707A" stroke-width="1.6" opacity="0.02"/><line x1="1378" y1="273" x2="1229" y2="281" stroke="#12707A" stroke-width="1.6" opacity="0.00"/><line x1="1378" y1="273" x2="1447" y2="284" stroke="#12707A" stroke-width="1.6" opacity="0.12"/><line x1="1378" y1="273" x2="1446" y2="260" stroke="#12707A" stroke-width="1.6" opacity="0.12"/><line x1="1378" y1="273" x2="1313" y2="259" stroke="#12707A" stroke-width="1.6" opacity="0.12"/><line x1="1378" y1="273" x2="1512" y2="297" stroke="#12707A" stroke-width="1.6" opacity="0.02"/><line x1="1378" y1="273" x2="1442" y2="320" stroke="#12707A" stroke-width="1.6" opacity="0.10"/><line x1="1378" y1="273" x2="1492" y2="230" stroke="#12707A" stroke-width="1.6" opacity="0.04"/><line x1="1335" y1="404" x2="1313" y2="259" stroke="#12707A" stroke-width="1.6" opacity="0.00"/><line x1="1335" y1="404" x2="1442" y2="320" stroke="#12707A" stroke-width="1.6" opacity="0.02"/><line x1="984" y1="152" x2="907" y2="230" stroke="#12707A" stroke-width="1.6" opacity="0.06"/><line x1="984" y1="152" x2="942" y2="111" stroke="#12707A" stroke-width="1.6" opacity="0.13"/><line x1="984" y1="152" x2="932" y2="87" stroke="#12707A" stroke-width="1.6" opacity="0.10"/><line x1="984" y1="152" x2="958" y2="203" stroke="#12707A" stroke-width="1.6" opacity="0.13"/><line x1="1562" y1="117" x2="1568" y2="78" stroke="#12707A" stroke-width="1.6" opacity="0.16"/><line x1="1562" y1="117" x2="1492" y2="230" stroke="#12707A" stroke-width="1.6" opacity="0.02"/><line x1="1229" y1="281" x2="1152" y2="199" stroke="#12707A" stroke-width="1.6" opacity="0.06"/><line x1="1229" y1="281" x2="1226" y2="169" stroke="#12707A" stroke-width="1.6" opacity="0.06"/><line x1="1229" y1="281" x2="1313" y2="259" stroke="#12707A" stroke-width="1.6" opacity="0.09"/><line x1="1447" y1="284" x2="1446" y2="260" stroke="#12707A" stroke-width="1.6" opacity="0.18"/><line x1="1447" y1="284" x2="1313" y2="259" stroke="#12707A" stroke-width="1.6" opacity="0.02"/><line x1="1447" y1="284" x2="1512" y2="297" stroke="#12707A" stroke-width="1.6" opacity="0.12"/><line x1="1447" y1="284" x2="1442" y2="320" stroke="#12707A" stroke-width="1.6" opacity="0.17"/><line x1="1447" y1="284" x2="1492" y2="230" stroke="#12707A" stroke-width="1.6" opacity="0.12"/><line x1="907" y1="230" x2="930" y2="321" stroke="#12707A" stroke-width="1.6" opacity="0.08"/><line x1="907" y1="230" x2="942" y2="111" stroke="#12707A" stroke-width="1.6" opacity="0.04"/><line x1="907" y1="230" x2="897" y2="330" stroke="#12707A" stroke-width="1.6" opacity="0.07"/><line x1="907" y1="230" x2="932" y2="87" stroke="#12707A" stroke-width="1.6" opacity="0.01"/><line x1="907" y1="230" x2="958" y2="203" stroke="#12707A" stroke-width="1.6" opacity="0.14"/><line x1="930" y1="321" x2="897" y2="330" stroke="#12707A" stroke-width="1.6" opacity="0.17"/><line x1="930" y1="321" x2="958" y2="203" stroke="#12707A" stroke-width="1.6" opacity="0.04"/><line x1="942" y1="111" x2="932" y2="87" stroke="#12707A" stroke-width="1.6" opacity="0.18"/><line x1="942" y1="111" x2="958" y2="203" stroke="#12707A" stroke-width="1.6" opacity="0.08"/><line x1="1152" y1="199" x2="1226" y2="169" stroke="#12707A" stroke-width="1.6" opacity="0.10"/><line x1="897" y1="330" x2="958" y2="203" stroke="#12707A" stroke-width="1.6" opacity="0.01"/><line x1="1226" y1="169" x2="1313" y2="259" stroke="#12707A" stroke-width="1.6" opacity="0.04"/><line x1="1446" y1="260" x2="1313" y2="259" stroke="#12707A" stroke-width="1.6" opacity="0.02"/><line x1="1446" y1="260" x2="1512" y2="297" stroke="#12707A" stroke-width="1.6" opacity="0.11"/><line x1="1446" y1="260" x2="1442" y2="320" stroke="#12707A" stroke-width="1.6" opacity="0.13"/><line x1="1446" y1="260" x2="1492" y2="230" stroke="#12707A" stroke-width="1.6" opacity="0.14"/><line x1="932" y1="87" x2="958" y2="203" stroke="#12707A" stroke-width="1.6" opacity="0.05"/><line x1="1313" y1="259" x2="1442" y2="320" stroke="#12707A" stroke-width="1.6" opacity="0.01"/><line x1="1512" y1="297" x2="1442" y2="320" stroke="#12707A" stroke-width="1.6" opacity="0.11"/><line x1="1512" y1="297" x2="1492" y2="230" stroke="#12707A" stroke-width="1.6" opacity="0.12"/><line x1="1442" y1="320" x2="1492" y2="230" stroke="#12707A" stroke-width="1.6" opacity="0.07"/><circle cx="958" cy="311" r="4.3" fill="#12707A"/><circle cx="970" cy="235" r="5.0" fill="#12707A"/><circle cx="1185" cy="222" r="4.1" fill="#12707A"/><circle cx="1013" cy="324" r="4.3" fill="#12707A"/><circle cx="1333" cy="366" r="6.5" fill="#12707A"/><circle cx="1537" cy="123" r="3.9" fill="#12707A"/><circle cx="1378" cy="273" r="3.8" fill="#12707A"/><circle cx="1335" cy="404" r="6.3" fill="#12707A"/><circle cx="984" cy="152" r="3.0" fill="#12707A"/><circle cx="1562" cy="117" r="5.9" fill="#12707A"/><circle cx="1229" cy="281" r="5.1" fill="#12707A"/><circle cx="1447" cy="284" r="4.2" fill="#12707A"/><circle cx="907" cy="230" r="6.7" fill="#12707A"/><circle cx="930" cy="321" r="5.5" fill="#12707A"/><circle cx="942" cy="111" r="5.7" fill="#12707A"/><circle cx="1152" cy="199" r="4.9" fill="#12707A"/><circle cx="897" cy="330" r="5.4" fill="#12707A"/><circle cx="1226" cy="169" r="6.2" fill="#12707A"/><circle cx="1446" cy="260" r="3.4" fill="#12707A"/><circle cx="932" cy="87" r="3.3" fill="#12707A"/><circle cx="1313" cy="259" r="3.8" fill="#12707A"/><circle cx="1512" cy="297" r="6.2" fill="#12707A"/><circle cx="1442" cy="320" r="5.1" fill="#12707A"/><circle cx="1568" cy="78" r="5.8" fill="#12707A"/><circle cx="1492" cy="230" r="6.3" fill="#12707A"/><circle cx="958" cy="203" r="4.1" fill="#12707A"/><polyline fill="none" stroke="#12707A" stroke-width="6" stroke-linejoin="round" points="940,326 980,313 1020,317 1060,315 1100,297 1140,296 1180,300 1220,279 1260,270 1300,278 1340,269 1380,272 1420,275 1460,261 1500,250"/><circle cx="1500" cy="250" r="14" fill="#F2C46D"/><rect x="960" y="374" width="56" height="26" rx="8" fill="#7FD8CB" opacity="0.6"/><rect x="1070" y="348" width="56" height="52" rx="8" fill="#7FD8CB" opacity="0.6"/><rect x="1180" y="322" width="56" height="78" rx="8" fill="#7FD8CB" opacity="0.6"/><rect x="1290" y="296" width="56" height="104" rx="8" fill="#7FD8CB" opacity="0.6"/><rect x="1400" y="270" width="56" height="130" rx="8" fill="#7FD8CB" opacity="0.6"/></svg>
