<svg xmlns="http://www.w3.org/2000/svg" viewBox="0 0 1600 480" width="1600" height="480"><defs><linearGradient id="bg" x1="0" y1="0" x2="1" y2="0"><stop offset="0" stop-color="#EEF3F6"/><stop offset="1" stop-color="#F8FAFB"/></linearGradient></defs><rect width="1600" height="480" fill="url(#bg)"/><circle cx="1250" cy="240" r="250" fill="#7FD8CB" opacity="0.18"/><line x1="901" y1="329" x2="975" y2="450" stroke="#12707A" stroke-width="1.6" opacity="0.01"/><line x1="901" y1="329" x2="892" y2="405" stroke="#12707A" stroke-width="1.6" opacity="0.11"/><line x1="901" y1="329" x2="967" y2="219" stroke="#12707A" stroke-width="1.6" opacity="0.03"/><line x1="901" y1="329" x2="841" y2="346" stroke="#12707A" stroke-width="1.6" opacity="0.13"/><line x1="901" y1="329" x2="892" y2="229" stroke="#12707A" stroke-width="1.6" opacity="0.07"/><line x1="901" y1="329" x2="929" y2="330" stroke="#12707A" stroke-width="1.6" opacity="0.18"/><line x1="901" y1="329" x2="835" y2="330" stroke="#12707A" stroke-width="1.6" opacity="0.12"/><line x1="1535" y1="139" x2="1573" y2="213" stroke="#12707A" stroke-width="1.6" opacity="0.10"/><line x1="1535" y1="139" x2="1427" y2="240" stroke="#12707A" stroke-width="1.6" opacity="0.00"/><line x1="1535" y1="139" x2="1442" y2="59" stroke="#12707A" stroke-width="1.6" opacity="0.04"/><line x1="1378" y1="310" x2="1340" y2="195" stroke="#12707A" stroke-width="1.6" opacity="0.04"/><line x1="1378" y1="310" x2="1483" y2="322" stroke="#12707A" stroke-width="1.6" opacity="0.06"/><line x1="1378" y1="310" x2="1268" y2="299" stroke="#12707A" stroke-width="1.6" opacity="0.06"/><line x1="1378" y1="310" x2="1427" y2="240" stroke="#12707A" stroke-width="1.6" opacity="0.10"/><line x1="1378" y1="310" x2="1341" y2="255" stroke="#12707A" stroke-width="1.6" opacity="0.12"/><line x1="1340" y1="195" x2="1300" y2="86" stroke="#12707A" stroke-width="1.6" opacity="0.05"/><line x1="1340" y1="195" x2="1325" y2="93" stroke="#12707A" stroke-width="1.6" opacity="0.07"/><line x1="1340" y1="195" x2="1268" y2="299" stroke="#12707A" stroke-width="1.6" opacity="0.03"/><line x1="1340" y1="195" x2="1427" y2="240" stroke="#12707A" stroke-width="1.6" opacity="0.08"/><line x1="1340" y1="195" x2="1341" y2="255" stroke="#12707A" stroke-width="1.6" opacity="0.13"/><line x1="910" y1="118" x2="914" y2="168" stroke="#12707A" stroke-width="1.6" opacity="0.15"/><line x1="910" y1="118" x2="967" y2="219" stroke="#12707A" stroke-width="1.6" opacity="0.05"/><line x1="910" y1="118" x2="892" y2="229" stroke="#12707A" stroke-width="1.6" opacity="0.06"/><line x1="1092" y1="135" x2="1220" y2="61" stroke="#12707A" stroke-width="1.6" opacity="0.00"/><line x1="1092" y1="135" x2="1189" y2="212" stroke="#12707A" stroke-width="1.6" opacity="0.04"/><line x1="1092" y1="135" x2="1142" y2="173" stroke="#12707A" stroke-width="1.6" opacity="0.13"/><line x1="1300" y1="86" x2="1325" y2="93" stroke="#12707A" stroke-width="1.6" opacity="0.18"/><line x1="1300" y1="86" x2="1442" y2="59" stroke="#12707A" stroke-width="1.6" opacity="0.01"/><line x1="1300" y1="86" x2="1220" y2="61" stroke="#12707A" stroke-width="1.6" opacity="0.10"/><line x1="1325" y1="93" x2="1442" y2="59" stroke="#12707A" stroke-width="1.6" opacity="0.04"/><line x1="1325" y1="93" x2="1220" y2="61" stroke="#12707A" stroke-width="1.6" opacity="0.06"/><line x1="914" y1="168" x2="967" y2="219" stroke="#12707A" stroke-width="1.6" opacity="0.11"/><line x1="914" y1="168" x2="892" y2="229" stroke="#12707A" stroke-width="1.6" opacity="0.13"/><line x1="975" y1="450" x2="892" y2="405" stroke="#12707A" stroke-width="1.6" opacity="0.08"/><line x1="975" y1="450" x2="929" y2="330" stroke="#12707A" stroke-width="1.6" opacity="0.03"/><line x1="1573" y1="213" x2="1483" y2="322" stroke="#12707A" stroke-width="1.6" opacity="0.01"/><line x1="1573" y1="213" x2="1427" y2="240" stroke="#12707A" stroke-width="1.6" opacity="0.00"/><line x1="1483" y1="322" x2="1427" y2="240" stroke="#12707A" stroke-width="1.6" opacity="0.07"/><line x1="1483" y1="322" x2="1478" y2="433" stroke="#12707A" stroke-width="1.6" opacity="0.06"/><line x1="1268" y1="299" x2="1341" y2="255" stroke="#12707A" stroke-width="1.6" opacity="0.10"/><line x1="1268" y1="299" x2="1189" y2="212" stroke="#12707A" stroke-width="1.6" opacity="0.05"/><line x1="892" y1="405" x2="841" y2="346" stroke="#12707A" stroke-width="1.6" opacity="0.11"/><line x1="892" y1="405" x2="929" y2="330" stroke="#12707A" stroke-width="1.6" opacity="0.10"/><line x1="892" y1="405" x2="835" y2="330" stroke="#12707A" stroke-width="1.6" opacity="0.08"/><line x1="967" y1="219" x2="892" y2="229" stroke="#12707A" stroke-width="1.6" opacity="0.11"/><line x1="967" y1="219" x2="929" y2="330" stroke="#12707A" stroke-width="1.6" opacity="0.05"/><line x1="1427" y1="240" x2="1341" y2="255" stroke="#12707A" stroke-width="1.6" opacity="0.09"/><line x1="841" y1="346" x2="892" y2="229" stroke="#12707A" stroke-width="1.6" opacity="0.03"/><line x1="841" y1="346" x2="929" y2="330" stroke="#12707A" stroke-width="1.6" opacity="0.09"/><line x1="841" y1="346" x2="835" y2="330" stroke="#12707A" stroke-width="1.6" opacity="0.20"/><line x1="1220" y1="61" x2="1142" y2="173" stroke="#12707A" stroke-width="1.6" opacity="0.02"/><line x1="1189" y1="212" x2="1142" y2="173" stroke="#12707A" stroke-width="1.6" opacity="0.13"/><line x1="892" y1="229" x2="929" y2="330" stroke="#12707A" stroke-width="1.6" opacity="0.06"/><line x1="892" y1="229" x2="835" y2="330" stroke="#12707A" stroke-width="1.6" opacity="0.05"/><line x1="929" y1="330" x2="835" y2="330" stroke="#12707A" stroke-width="1.6" opacity="0.08"/><circle cx="901" cy="329" r="5.6" fill="#12707A"/><circle cx="1535" cy="139" r="4.0" fill="#12707A"/><circle cx="1378" cy="310" r="4.2" fill="#12707A"/><circle cx="1340" cy="195" r="6.1" fill="#12707A"/><circle cx="910" cy="118" r="6.6" fill="#12707A"/><circle cx="1092" cy="135" r="6.2" fill="#12707A"/><circle cx="1300" cy="86" r="5.2" fill="#12707A"/><circle cx="1325" cy="93" r="5.6" fill="#12707A"/><circle cx="914" cy="168" r="3.3" fill="#12707A"/><circle cx="975" cy="450" r="4.6" fill="#12707A"/><circle cx="1573" cy="213" r="5.4" fill="#12707A"/><circle cx="1483" cy="322" r="3.4" fill="#12707A"/><circle cx="1268" cy="299" r="3.7" fill="#12707A"/><circle cx="892" cy="405" r="5.1" fill="#12707A"/><circle cx="967" cy="219" r="3.9" fill="#12707A"/><circle cx="1427" cy="240" r="3.4" fill="#12707A"/><circle cx="1442" cy="59" r="4.1" fill="#12707A"/><circle cx="841" cy="346" r="3.5" fill="#12707A"/><circle cx="1220" cy="61" r="4.9" fill="#12707A"/><circle cx="1341" cy="255" r="4.8" fill="#12707A"/><circle cx="1189" cy="212" r="5.4" fill="#12707A"/><circle cx="892" cy="229" r="3.9" fill="#12707A"/><circle cx="1478" cy="433" r="3.3" fill="#12707A"/><circle cx="929" cy="330" r="5.3" fill="#12707A"/><circle cx="835" cy="330" r="6.8" fill="#12707A"/><circle cx="1142" cy="173" r="5.3" fill="#12707A"/><rect x="1040" y="120" width="200" height="280" rx="14" fill="#fff" stroke="#12707A" stroke-width="3"/><rect x="1040" y="160" width="200" height="40" fill="#12707A"/><rect x="1270" y="190" width="110" height="210" rx="18" fill="#fff" stroke="#12707A" stroke-width="3"/><rect x="1290" y="150" width="70" height="44" rx="8" fill="#F2C46D"/><rect x="1410" y="250" width="60" height="150" rx="10" fill="#fff" stroke="#12707A" stroke-width="3"/><rect x="1418" y="226" width="44" height="28" rx="5" fill="#7FD8CB"/></svg>
