<svg xmlns="http://www.w3.org/2000/svg" viewBox="0 0 1600 480" width="1600" height="480"><defs><linearGradient id="bg" x1="0" y1="0" x2="1" y2="0"><stop offset="0" stop-color="#E9F4F3"/><stop offset="1" stop-color="#F7FAFB"/></linearGradient></defs><rect width="1600" height="480" fill="url(#bg)"/><circle cx="1250" cy="240" r="250" fill="#7FD8CB" opacity="0.18"/><line x1="1181" y1="309" x2="1277" y2="266" stroke="#12707A" stroke-width="1.6" opacity="0.06"/><line x1="1181" y1="309" x2="1128" y2="391" stroke="#12707A" stroke-width="1.6" opacity="0.08"/><line x1="1181" y1="309" x2="1058" y2="293" stroke="#12707A" stroke-width="1.6" opacity="0.04"/><line x1="1181" y1="309" x2="1273" y2="230" stroke="#12707A" stroke-width="1.6" opacity="0.04"/><line x1="1181" y1="309" x2="1096" y2="324" stroke="#12707A" stroke-width="1.6" opacity="0.09"/><line x1="1181" y1="309" x2="1209" y2="376" stroke="#12707A" stroke-width="1.6" opacity="0.11"/><line x1="1181" y1="309" x2="1115" y2="360" stroke="#12707A" stroke-width="1.6" opacity="0.10"/><line x1="928" y1="25" x2="907" y2="123" stroke="#12707A" stroke-width="1.6" opacity="0.07"/><line x1="928" y1="25" x2="848" y2="142" stroke="#12707A" stroke-width="1.6" opacity="0.01"/><line x1="1028" y1="377" x2="1128" y2="391" stroke="#12707A" stroke-width="1.6" opacity="0.07"/><line x1="1028" y1="377" x2="1058" y2="293" stroke="#12707A" stroke-width="1.6" opacity="0.09"/><line x1="1028" y1="377" x2="1096" y2="324" stroke="#12707A" stroke-width="1.6" opacity="0.09"/><line x1="1028" y1="377" x2="1115" y2="360" stroke="#12707A" stroke-width="1.6" opacity="0.09"/><line x1="1277" y1="266" x2="1273" y2="230" stroke="#12707A" stroke-width="1.6" opacity="0.17"/><line x1="1277" y1="266" x2="1209" y2="376" stroke="#12707A" stroke-width="1.6" opacity="0.03"/><line x1="930" y1="214" x2="877" y2="322" stroke="#12707A" stroke-width="1.6" opacity="0.04"/><line x1="930" y1="214" x2="906" y2="206" stroke="#12707A" stroke-width="1.6" opacity="0.18"/><line x1="930" y1="214" x2="907" y2="123" stroke="#12707A" stroke-width="1.6" opacity="0.08"/><line x1="930" y1="214" x2="848" y2="142" stroke="#12707A" stroke-width="1.6" opacity="0.06"/><line x1="877" y1="322" x2="866" y2="423" stroke="#12707A" stroke-width="1.6" opacity="0.07"/><line x1="877" y1="322" x2="889" y2="454" stroke="#12707A" stroke-width="1.6" opacity="0.03"/><line x1="877" y1="322" x2="906" y2="206" stroke="#12707A" stroke-width="1.6" opacity="0.04"/><line x1="877" y1="322" x2="843" y2="340" stroke="#12707A" stroke-width="1.6" opacity="0.16"/><line x1="877" y1="322" x2="841" y2="382" stroke="#12707A" stroke-width="1.6" opacity="0.12"/><line x1="1128" y1="391" x2="1058" y2="293" stroke="#12707A" stroke-width="1.6" opacity="0.04"/><line x1="1128" y1="391" x2="1096" y2="324" stroke="#12707A" stroke-width="1.6" opacity="0.11"/><line x1="1128" y1="391" x2="1209" y2="376" stroke="#12707A" stroke-width="1.6" opacity="0.10"/><line x1="1128" y1="391" x2="1115" y2="360" stroke="#12707A" stroke-width="1.6" opacity="0.17"/><line x1="866" y1="423" x2="889" y2="454" stroke="#12707A" stroke-width="1.6" opacity="0.16"/><line x1="866" y1="423" x2="843" y2="340" stroke="#12707A" stroke-width="1.6" opacity="0.09"/><line x1="866" y1="423" x2="841" y2="382" stroke="#12707A" stroke-width="1.6" opacity="0.15"/><line x1="889" y1="454" x2="843" y2="340" stroke="#12707A" stroke-width="1.6" opacity="0.04"/><line x1="889" y1="454" x2="841" y2="382" stroke="#12707A" stroke-width="1.6" opacity="0.09"/><line x1="906" y1="206" x2="843" y2="340" stroke="#12707A" stroke-width="1.6" opacity="0.00"/><line x1="906" y1="206" x2="907" y2="123" stroke="#12707A" stroke-width="1.6" opacity="0.10"/><line x1="906" y1="206" x2="848" y2="142" stroke="#12707A" stroke-width="1.6" opacity="0.09"/><line x1="1058" y1="293" x2="1096" y2="324" stroke="#12707A" stroke-width="1.6" opacity="0.15"/><line x1="1058" y1="293" x2="1115" y2="360" stroke="#12707A" stroke-width="1.6" opacity="0.09"/><line x1="1350" y1="43" x2="1238" y2="98" stroke="#12707A" stroke-width="1.6" opacity="0.04"/><line x1="1350" y1="43" x2="1304" y2="43" stroke="#12707A" stroke-width="1.6" opacity="0.15"/><line x1="1273" y1="230" x2="1214" y2="118" stroke="#12707A" stroke-width="1.6" opacity="0.03"/><line x1="1273" y1="230" x2="1238" y2="98" stroke="#12707A" stroke-width="1.6" opacity="0.02"/><line x1="843" y1="340" x2="841" y2="382" stroke="#12707A" stroke-width="1.6" opacity="0.16"/><line x1="1096" y1="324" x2="1209" y2="376" stroke="#12707A" stroke-width="1.6" opacity="0.04"/><line x1="1096" y1="324" x2="1115" y2="360" stroke="#12707A" stroke-width="1.6" opacity="0.16"/><line x1="907" y1="123" x2="848" y2="142" stroke="#12707A" stroke-width="1.6" opacity="0.13"/><line x1="1209" y1="376" x2="1115" y2="360" stroke="#12707A" stroke-width="1.6" opacity="0.08"/><line x1="1214" y1="118" x2="1238" y2="98" stroke="#12707A" stroke-width="1.6" opacity="0.18"/><line x1="1214" y1="118" x2="1304" y2="43" stroke="#12707A" stroke-width="1.6" opacity="0.05"/><line x1="1238" y1="98" x2="1304" y2="43" stroke="#12707A" stroke-width="1.6" opacity="0.09"/><circle cx="1181" cy="309" r="5.7" fill="#12707A"/><circle cx="928" cy="25" r="4.5" fill="#12707A"/><circle cx="1028" cy="377" r="5.8" fill="#12707A"/><circle cx="1277" cy="266" r="5.6" fill="#12707A"/><circle cx="930" cy="214" r="3.6" fill="#12707A"/><circle cx="1509" cy="46" r="6.3" fill="#12707A"/><circle cx="877" cy="322" r="4.3" fill="#12707A"/><circle cx="1128" cy="391" r="3.1" fill="#12707A"/><circle cx="866" cy="423" r="5.0" fill="#12707A"/><circle cx="889" cy="454" r="6.8" fill="#12707A"/><circle cx="906" cy="206" r="3.5" fill="#12707A"/><circle cx="1058" cy="293" r="3.7" fill="#12707A"/><circle cx="1350" cy="43" r="3.7" fill="#12707A"/><circle cx="1440" cy="196" r="4.7" fill="#12707A"/><circle cx="1273" cy="230" r="4.5" fill="#12707A"/><circle cx="843" cy="340" r="6.9" fill="#12707A"/><circle cx="1562" cy="312" r="4.4" fill="#12707A"/><circle cx="1096" cy="324" r="5.7" fill="#12707A"/><circle cx="907" cy="123" r="4.5" fill="#12707A"/><circle cx="1209" cy="376" r="5.0" fill="#12707A"/><circle cx="841" cy="382" r="4.7" fill="#12707A"/><circle cx="1214" cy="118" r="4.7" fill="#12707A"/><circle cx="1115" cy="360" r="3.4" fill="#12707A"/><circle cx="1238" cy="98" r="5.8" fill="#12707A"/><circle cx="848" cy="142" r="4.4" fill="#12707A"/><circle cx="1304" cy="43" r="4.8" fill="#12707A"/><polygon points="1249.3,270.0 1180.0,310.0 1110.7,270.0 1110.7,190.0 1180.0,150.0 1249.3,190.0" fill="none" stroke="#12707A" stroke-width="6" opacity="1.0"/><line x1="1249.3" y1="270.0" x2="1318.6" y2="310.0" stroke="#12707A" stroke-width="6"/><circle cx="1318.6" cy="310.0" r="16.0" fill="#F2C46D"/><line x1="1110.7" y1="270.0" x2="1041.4" y2="310.0" stroke="#12707A" stroke-width="6"/><circle cx="1041.4" cy="310.0" r="16.0" fill="#F2C46D"/><line x1="1180.0" y1="150.0" x2="1180.0" y2="70.0" stroke="#12707A" stroke-width="6"/><circle cx="1180.0" cy="70.0" r="16.0" fill="#F2C46D"/><circle cx="1249.3" cy="270.0" r="8.8" fill="#12707A"/><circle cx="1180.0" cy="310.0" r="8.8" fill="#12707A"/><circle cx="1110.7" cy="270.0" r="8.8" fill="#12707A"/><circle cx="1110.7" cy="190.0" r="8.8" fill="#12707A"/><circle cx="1180.0" cy="150.0" r="8.8" fill="#12707A"/><circle cx="1249.3" cy="190.0" r="8.8" fill="#12707A"/><polygon points="1459.8,353.0 1420.0,376.0 1380.2,353.0 1380.2,307.0 1420.0,284.0 1459.8,307.0" fill="none" stroke="#12707A" stroke-width="5" opacity="1.0"/><line x1="1459.8" y1="353.0" x2="1499.7" y2="376.0" stroke="#12707A" stroke-width="5"/><circle cx="1499.7" cy="376.0" r="9.2" fill="#7FD8CB"/><line x1="1380.2" y1="353.0" x2="1340.3" y2="376.0" stroke="#12707A" stroke-width="5"/><circle cx="1340.3" cy="376.0" r="9.2" fill="#7FD8CB"/><line x1="1420.0" y1="284.0" x2="1420.0" y2="238.0" stroke="#12707A" stroke-width="5"/><circle cx="1420.0" cy="238.0" r="9.2" fill="#7FD8CB"/><circle cx="1459.8" cy="353.0" r="5.1" fill="#12707A"/><circle cx="1420.0" cy="376.0" r="5.1" fill="#12707A"/><circle cx="1380.2" cy="353.0" r="5.1" fill="#12707A"/><circle cx="1380.2" cy="307.0" r="5.1" fill="#12707A"/><circle cx="1420.0" cy="284.0" r="5.1" fill="#12707A"/><circle cx="1459.8" cy="307.0" r="5.1" fill="#12707A"/><polygon points="1052.0,360.0 1000.0,390.0 948.0,360.0 948.0,300.0 1000.0,270.0 1052.0,300.0" fill="none" stroke="#12707A" stroke-width="3" opacity="0.4"/></svg>
